<?xml version="1.0" encoding="UTF-8"?>
<svg xmlns="http://www.w3.org/2000/svg" xmlns:xlink="http://www.w3.org/1999/xlink" width="30px" height="30px" viewBox="0 0 30 30" version="1.1">
<g id="surface1">
<path style=" stroke:none;fill-rule:nonzero;fill:rgb(100%,100%,100%);fill-opacity:1;" d="M 22.632812 9.375 L 19.6875 9.375 C 18.648438 9.375 17.8125 10.210938 17.8125 11.25 C 17.8125 12.289062 18.648438 13.125 19.6875 13.125 L 27.1875 13.125 C 28.226562 13.125 29.0625 12.289062 29.0625 11.25 L 29.0625 3.75 C 29.0625 2.710938 28.226562 1.875 27.1875 1.875 C 26.148438 1.875 25.3125 2.710938 25.3125 3.75 L 25.3125 6.75 L 24.28125 5.71875 C 19.15625 0.589844 10.84375 0.589844 5.71875 5.71875 C 0.589844 10.84375 0.589844 19.15625 5.71875 24.28125 C 10.84375 29.40625 19.15625 29.40625 24.28125 24.28125 C 25.015625 23.546875 25.015625 22.359375 24.28125 21.625 C 23.546875 20.894531 22.359375 20.894531 21.625 21.625 C 17.964844 25.289062 12.027344 25.289062 8.367188 21.625 C 4.703125 17.964844 4.703125 12.027344 8.367188 8.367188 C 12.027344 4.703125 17.964844 4.703125 21.625 8.367188 Z M 22.632812 9.375 "/>
</g>
</svg>
