<?xml version="1.0" encoding="UTF-8"?>
<svg xmlns="http://www.w3.org/2000/svg" xmlns:xlink="http://www.w3.org/1999/xlink" width="38px" height="30px" viewBox="0 0 37 30" version="1.1">
<g id="surface1">
<path style=" stroke:none;fill-rule:nonzero;fill:rgb(100%,100%,100%);fill-opacity:1;" d="M 20.453125 3.171875 L 19.089844 0.367188 C 18.863281 -0.117188 18.160156 -0.132812 17.910156 0.367188 L 16.546875 3.171875 L 13.523438 3.609375 C 12.984375 3.691406 12.753906 4.367188 13.152344 4.769531 L 15.347656 6.9375 L 14.828125 9.992188 C 14.746094 10.535156 15.304688 10.957031 15.800781 10.703125 L 18.511719 9.25 L 21.207031 10.679688 C 21.703125 10.933594 22.261719 10.511719 22.175781 9.96875 L 21.65625 6.914062 L 23.851562 4.769531 C 24.246094 4.371094 24.019531 3.699219 23.484375 3.609375 L 20.460938 3.171875 Z M 14.800781 15 C 13.777344 15 12.949219 15.835938 12.949219 16.875 L 12.949219 28.125 C 12.949219 29.164062 13.777344 30 14.800781 30 L 22.199219 30 C 23.222656 30 24.050781 29.164062 24.050781 28.125 L 24.050781 16.875 C 24.050781 15.835938 23.222656 15 22.199219 15 Z M 1.851562 18.75 C 0.828125 18.75 0 19.585938 0 20.625 L 0 28.125 C 0 29.164062 0.828125 30 1.851562 30 L 9.25 30 C 10.273438 30 11.101562 29.164062 11.101562 28.125 L 11.101562 20.625 C 11.101562 19.585938 10.273438 18.75 9.25 18.75 Z M 25.898438 24.375 L 25.898438 28.125 C 25.898438 29.164062 26.726562 30 27.75 30 L 35.148438 30 C 36.171875 30 37 29.164062 37 28.125 L 37 24.375 C 37 23.335938 36.171875 22.5 35.148438 22.5 L 27.75 22.5 C 26.726562 22.5 25.898438 23.335938 25.898438 24.375 Z M 25.898438 24.375 "/>
</g>
</svg>
