<?xml version="1.0" encoding="UTF-8"?>
<svg xmlns="http://www.w3.org/2000/svg" xmlns:xlink="http://www.w3.org/1999/xlink" width="30px" height="34px" viewBox="0 0 30 34" version="1.1">
<g id="surface1">
<path style=" stroke:none;fill-rule:nonzero;fill:rgb(100%,100%,100%);fill-opacity:1;" d="M 15 17 C 12.644531 17 10.714844 18.914062 10.714844 21.25 C 10.714844 23.585938 12.644531 25.5 15 25.5 C 17.355469 25.5 19.285156 23.585938 19.285156 21.25 C 19.285156 18.914062 17.355469 17 15 17 Z M 29.003906 8.574219 L 23.382812 3 C 22.839844 2.460938 22.019531 2.125 21.167969 2.125 L 4.285156 2.125 C 1.917969 2.125 0 4.027344 0 6.375 L 0 27.625 C 0 29.972656 1.917969 31.875 4.285156 31.875 L 25.714844 31.875 C 28.082031 31.875 30 29.972656 30 27.625 L 30 10.882812 C 30 10.039062 29.660156 9.222656 29.003906 8.574219 Z M 8.570312 5.3125 L 18.214844 5.3125 L 18.214844 10.625 L 8.570312 10.625 Z M 26.785156 27.625 C 26.785156 28.210938 26.304688 28.6875 25.714844 28.6875 L 4.285156 28.6875 C 3.695312 28.6875 3.214844 28.210938 3.214844 27.625 L 3.214844 6.375 C 3.214844 5.789062 3.695312 5.3125 4.285156 5.3125 L 5.355469 5.3125 L 5.355469 12.21875 C 5.355469 13.097656 6.078125 13.8125 6.964844 13.8125 L 19.820312 13.8125 C 20.710938 13.8125 21.429688 13.101562 21.429688 12.21875 L 21.429688 5.570312 L 26.667969 10.765625 C 26.746094 10.835938 26.785156 10.945312 26.785156 11.042969 Z M 26.785156 27.625 "/>
</g>
</svg>
