<?xml version="1.0" encoding="UTF-8"?>
<svg xmlns="http://www.w3.org/2000/svg" xmlns:xlink="http://www.w3.org/1999/xlink" width="30px" height="30px" viewBox="0 0 30 30" version="1.1">
<g id="surface1">
<path style=" stroke:none;fill-rule:nonzero;fill:rgb(100%,100%,100%);fill-opacity:1;" d="M 23.660156 2.015625 C 24.363281 1.722656 25.164062 1.886719 25.703125 2.421875 L 29.453125 6.171875 C 29.804688 6.523438 30.007812 6.996094 30.007812 7.492188 C 30.007812 7.992188 29.808594 8.46875 29.457031 8.820312 L 25.707031 12.570312 C 25.167969 13.109375 24.363281 13.265625 23.660156 12.972656 C 22.957031 12.679688 22.5 12 22.5 11.238281 L 22.5 9.375 L 20.625 9.375 C 20.03125 9.375 19.476562 9.648438 19.125 10.125 L 16.640625 13.4375 L 14.296875 10.3125 L 16.125 7.875 C 17.1875 6.457031 18.855469 5.625 20.625 5.625 L 22.5 5.625 L 22.5 3.75 C 22.5 2.992188 22.957031 2.308594 23.660156 2.015625 Z M 9.609375 16.5625 L 11.953125 19.6875 L 10.125 22.125 C 9.0625 23.542969 7.394531 24.375 5.625 24.375 L 1.875 24.375 C 0.835938 24.375 0 23.539062 0 22.5 C 0 21.460938 0.835938 20.625 1.875 20.625 L 5.625 20.625 C 6.21875 20.625 6.773438 20.351562 7.125 19.875 Z M 25.699219 27.578125 C 25.160156 28.117188 24.359375 28.277344 23.65625 27.984375 C 22.953125 27.691406 22.496094 27.011719 22.496094 26.25 L 22.496094 24.375 L 20.625 24.375 C 18.855469 24.375 17.1875 23.542969 16.125 22.125 L 7.125 10.125 C 6.773438 9.652344 6.21875 9.375 5.625 9.375 L 1.875 9.375 C 0.835938 9.375 0 8.539062 0 7.5 C 0 6.464844 0.835938 5.625 1.875 5.625 L 5.625 5.625 C 7.394531 5.625 9.0625 6.457031 10.125 7.875 L 19.125 19.875 C 19.476562 20.351562 20.03125 20.625 20.625 20.625 L 22.5 20.625 L 22.5 18.75 C 22.5 17.992188 22.957031 17.308594 23.660156 17.015625 C 24.363281 16.722656 25.164062 16.886719 25.703125 17.417969 L 29.453125 21.167969 C 29.804688 21.519531 30.007812 21.996094 30.007812 22.492188 C 30.007812 22.992188 29.808594 23.46875 29.457031 23.820312 Z M 25.699219 27.578125 "/>
</g>
</svg>
