<?xml version="1.0" encoding="UTF-8"?>
<svg xmlns="http://www.w3.org/2000/svg" xmlns:xlink="http://www.w3.org/1999/xlink" width="30px" height="30px" viewBox="0 0 30 30" version="1.1">
<g id="surface1">
<path style=" stroke:none;fill-rule:nonzero;fill:rgb(100%,100%,100%);fill-opacity:1;" d="M 29.242188 0.367188 C 29.71875 0.71875 30 1.28125 30 1.875 L 30 21.5625 C 30 24.152344 27.480469 26.25 24.375 26.25 C 21.269531 26.25 18.75 24.152344 18.75 21.5625 C 18.75 18.972656 21.269531 16.875 24.375 16.875 C 25.03125 16.875 25.664062 16.96875 26.25 17.144531 L 26.25 8.613281 L 11.25 13.113281 L 11.25 25.3125 C 11.25 27.902344 8.730469 30 5.625 30 C 2.519531 30 0 27.902344 0 25.3125 C 0 22.722656 2.519531 20.625 5.625 20.625 C 6.28125 20.625 6.914062 20.71875 7.5 20.894531 L 7.5 7.5 C 7.5 6.671875 8.046875 5.941406 8.835938 5.703125 L 27.585938 0.0742188 C 28.15625 -0.09375 28.769531 0.0117188 29.242188 0.367188 Z M 29.242188 0.367188 "/>
</g>
</svg>
