<?xml version="1.0" encoding="UTF-8"?>
<svg xmlns="http://www.w3.org/2000/svg" xmlns:xlink="http://www.w3.org/1999/xlink" width="30px" height="30px" viewBox="0 0 30 30" version="1.1">
<g id="surface1">
<path style=" stroke:none;fill-rule:nonzero;fill:rgb(100%,100%,100%);fill-opacity:1;" d="M 17.40625 22.527344 C 19.023438 23.082031 20.457031 23.433594 22.511719 24.066406 C 21.722656 34.042969 12.289062 30.078125 17.40625 22.527344 Z M 25.828125 13.363281 C 25.722656 10.367188 25.191406 6.441406 20.992188 7.054688 C 19.019531 7.570312 17.566406 9.734375 16.882812 13.464844 C 16.503906 15.515625 16.722656 18.398438 17.167969 20.125 C 17.574219 21.339844 17.433594 21.265625 17.871094 21.496094 C 19.554688 21.878906 21.222656 22.296875 22.921875 22.726562 C 24.644531 21.507812 26.0625 15.039062 25.828125 13.363281 Z M 12.859375 13.132812 C 13.300781 11.40625 13.519531 8.527344 13.144531 6.472656 C 12.460938 2.742188 11.003906 0.578125 9.035156 0.0625 C 4.832031 -0.550781 4.304688 3.378906 4.199219 6.371094 C 3.964844 8.046875 5.382812 14.515625 7.105469 15.734375 C 8.804688 15.304688 10.472656 14.886719 12.15625 14.507812 C 12.59375 14.277344 12.453125 14.351562 12.859375 13.132812 Z M 7.515625 17.074219 C 8.304688 27.050781 17.738281 23.089844 12.621094 15.535156 C 11 16.089844 9.570312 16.445312 7.515625 17.074219 Z M 7.515625 17.074219 "/>
</g>
</svg>
