<?xml version="1.0" encoding="UTF-8"?>
<svg xmlns="http://www.w3.org/2000/svg" xmlns:xlink="http://www.w3.org/1999/xlink" width="30px" height="30px" viewBox="0 0 30 30" version="1.1">
<g id="surface1">
<path style=" stroke:none;fill-rule:nonzero;fill:rgb(100%,100%,100%);fill-opacity:1;" d="M 19.21875 9.375 L 10.78125 9.375 C 10.007812 9.375 9.375 10.007812 9.375 10.78125 L 9.375 19.21875 C 9.375 19.992188 10.007812 20.625 10.78125 20.625 L 19.21875 20.625 C 19.992188 20.625 20.625 19.992188 20.625 19.21875 L 20.625 10.78125 C 20.625 10.007812 19.992188 9.375 19.21875 9.375 Z M 15 0 C 6.714844 0 0 6.714844 0 15 C 0 23.285156 6.714844 30 15 30 C 23.285156 30 30 23.285156 30 15 C 30 6.714844 23.285156 0 15 0 Z M 15 27.1875 C 8.28125 27.1875 2.8125 21.71875 2.8125 15 C 2.8125 8.28125 8.28125 2.8125 15 2.8125 C 21.71875 2.8125 27.1875 8.28125 27.1875 15 C 27.1875 21.71875 21.71875 27.1875 15 27.1875 Z M 15 27.1875 "/>
</g>
</svg>
